<?xml version="1.0" encoding="utf-8"?>
<!-- Generator: Adobe Illustrator 17.0.0, SVG Export Plug-In . SVG Version: 6.00 Build 0)  -->
<!DOCTYPE svg PUBLIC "-//W3C//DTD SVG 1.1//EN" "http://www.w3.org/Graphics/SVG/1.1/DTD/svg11.dtd">
<svg version="1.1" id="Capa_1" xmlns="http://www.w3.org/2000/svg" xmlns:xlink="http://www.w3.org/1999/xlink" x="0px" y="0px"
	 width="49.76px" height="50px" viewBox="209.482 67.907 49.76 50" enable-background="new 209.482 67.907 49.76 50"
	 xml:space="preserve">
<g id="background_1_">
</g>
<path fill="#838484" d="M234.466,67.907c-13.656,0-24.771,11.114-24.776,24.774c-0.002,4.367,1.139,8.629,3.307,12.386
	l-3.515,12.839l13.135-3.445c3.619,1.974,7.693,3.014,11.84,3.015h0.01c13.655,0,24.77-11.115,24.776-24.776
	c0.003-6.62-2.572-12.845-7.25-17.528C247.315,70.49,241.094,67.91,234.466,67.907z M234.467,113.293h-0.009
	c-3.695-0.001-7.32-0.995-10.481-2.871l-0.752-0.446l-7.794,2.044l2.08-7.599l-0.49-0.779c-2.061-3.279-3.15-7.069-3.148-10.96
	c0.005-11.354,9.243-20.592,20.602-20.592c5.5,0.002,10.671,2.147,14.559,6.039c3.888,3.892,6.028,9.067,6.026,14.569
	C255.055,104.055,245.817,113.293,234.467,113.293z M245.762,97.87c-0.619-0.31-3.663-1.807-4.23-2.014
	c-0.567-0.206-0.98-0.31-1.393,0.31c-0.413,0.62-1.599,2.014-1.96,2.427c-0.361,0.413-0.722,0.465-1.341,0.156
	c-0.619-0.31-2.614-0.964-4.978-3.073c-1.84-1.641-3.083-3.669-3.444-4.289c-0.361-0.619-0.039-0.954,0.271-1.263
	c0.278-0.277,0.619-0.723,0.929-1.084c0.309-0.362,0.413-0.62,0.619-1.034c0.206-0.413,0.103-0.775-0.052-1.084
	c-0.155-0.31-1.393-3.357-1.909-4.596c-0.503-1.207-1.013-1.044-1.393-1.063c-0.361-0.019-0.774-0.022-1.186-0.022
	s-1.083,0.156-1.651,0.775c-0.568,0.62-2.167,2.118-2.167,5.164c0,3.047,2.218,5.991,2.528,6.405
	c0.31,0.413,4.365,6.666,10.576,9.348c1.477,0.638,2.63,1.019,3.529,1.304c1.483,0.471,2.833,0.405,3.899,0.245
	c1.189-0.178,3.663-1.498,4.179-2.944c0.516-1.446,0.516-2.685,0.361-2.944C246.794,98.335,246.381,98.18,245.762,97.87z"/>
</svg>
